<svg id="Capa_1" enable-background="new 0 0 512 512" height="512" viewBox="0 0 512 512" width="512" xmlns="http://www.w3.org/2000/svg"><g><g><path d="m256 452c-8.291 0-15-6.709-15-15v-61c0-8.291 6.709-15 15-15s15 6.709 15 15v61c0 8.291-6.709 15-15 15z" fill="#e6f6ff"/></g><path d="m271 437v-61c0-8.291-6.709-15-15-15v91c8.291 0 15-6.709 15-15z" fill="#bee3ed"/><g><path d="m196 180h-61c-8.291 0-15-6.709-15-15s6.709-15 15-15h61c8.291 0 15 6.709 15 15s-6.709 15-15 15z" fill="#e6f6ff"/></g><g><path d="m377 180h-61c-8.291 0-15-6.709-15-15s6.709-15 15-15h61c8.291 0 15 6.709 15 15s-6.709 15-15 15z" fill="#bee3ed"/></g><g><path d="m256 271c-8.291 0-15-6.709-15-15v-61c0-8.291 6.709-15 15-15s15 6.709 15 15v61c0 8.291-6.709 15-15 15z" fill="#e6f6ff"/></g><path d="m271 256v-61c0-8.291-6.709-15-15-15v91c8.291 0 15-6.709 15-15z" fill="#bee3ed"/><g><path d="m75 90c-24.814 0-45-20.186-45-45s20.186-45 45-45 45 20.186 45 45-20.186 45-45 45z" fill="#ffd9b3"/></g><g><path d="m437 90c-24.814 0-45-20.186-45-45s20.186-45 45-45 45 20.186 45 45-20.186 45-45 45z" fill="#fb9"/></g><g><path d="m256 90c-24.814 0-45-20.186-45-45s20.186-45 45-45 45 20.186 45 45-20.186 45-45 45z" fill="#ffd9b3"/></g><path d="m301 45c0-24.814-20.186-45-45-45v90c24.814 0 45-20.186 45-45z" fill="#fb9"/><g><path d="m361 316v60c0 8.399-6.599 15-15 15h-180c-8.401 0-15-6.601-15-15v-60l105-30z" fill="#004080"/><path d="m346 391c8.401 0 15-6.601 15-15v-60l-105-30v105z" fill="#00264d"/><path d="m361 256v60h-210v-60c0-8.401 6.599-15 15-15h180c8.401 0 15 6.599 15 15z" fill="#366ab3"/><path d="m346 241h-90v75h105v-60c0-8.401-6.599-15-15-15z" fill="#004080"/></g><g><path d="m497 482h-211c-8.291 0-15-6.709-15-15s6.709-15 15-15h211c8.291 0 15 6.709 15 15s-6.709 15-15 15z" fill="#bee3ed"/></g><g><path d="m226 482h-211c-8.291 0-15-6.709-15-15s6.709-15 15-15h211c8.291 0 15 6.709 15 15s-6.709 15-15 15z" fill="#e6f6ff"/></g><g><path d="m316 210h-120c-8.291 0-15-6.709-15-15v-30c0-41.353 33.647-75 75-75s75 33.647 75 75v30c0 8.291-6.709 15-15 15z" fill="#28e7ef"/></g><path d="m316 210c8.291 0 15-6.709 15-15v-30c0-41.353-33.647-75-75-75v120z" fill="#1cace7"/><g><path d="m135 210h-120c-8.291 0-15-6.709-15-15v-30c0-41.353 33.647-75 75-75s75 33.647 75 75v30c0 8.291-6.709 15-15 15z" fill="#28e7ef"/></g><g><path d="m497 210h-120c-8.291 0-15-6.709-15-15v-30c0-41.353 33.647-75 75-75s75 33.647 75 75v30c0 8.291-6.709 15-15 15z" fill="#1cace7"/></g><g><path d="m256 512c-24.814 0-45-20.186-45-45s20.186-45 45-45 45 20.186 45 45-20.186 45-45 45z" fill="#28e7ef"/></g><path d="m301 467c0-24.814-20.186-45-45-45v90c24.814 0 45-20.186 45-45z" fill="#1cace7"/></g></svg>