<svg id="Capa_1" enable-background="new 0 0 512 512" height="512" viewBox="0 0 512 512" width="512" xmlns="http://www.w3.org/2000/svg"><g><path d="m0 32.018h64v64h-64z" fill="#8ab6f7"/><path d="m128 32.02h384v64h-384z" fill="#6673b5"/><path d="m0 160.05h64v64h-64z" fill="#8ab6f7"/><path d="m128 160.05h384v64h-384z" fill="#6673b5"/><path d="m0 288.016h64v64h-64z" fill="#8ab6f7"/><path d="m128 288.02h384v64h-384z" fill="#6673b5"/><path d="m0 415.983h64v64h-64z" fill="#8ab6f7"/><path d="m128 415.98h384v64h-384z" fill="#6673b5"/><g fill="#4e588b"><path d="m256 32.02h256v64h-256z"/><path d="m256 160.05h256v64h-256z"/><path d="m256 288.02h256v64h-256z"/><path d="m256 415.98h256v64h-256z"/></g></g></svg>